<?xml version="1.0" encoding="iso-8859-1"?>
<!-- Generator: Adobe Illustrator 18.1.1, SVG Export Plug-In . SVG Version: 6.00 Build 0)  -->
<svg xmlns="http://www.w3.org/2000/svg" xmlns:xlink="http://www.w3.org/1999/xlink" version="1.1" id="Capa_1" x="0px" y="0px" viewBox="0 0 25.142 25.142" style="enable-background:new 0 0 25.142 25.142;" xml:space="preserve" width="512px" height="512px">
<g>
	<g>
		<path d="M21.57,19.994c-0.053-0.26-0.21-0.488-0.429-0.632L18.453,17.6l-0.986-3.571l2.216-1.154    c0.487-0.248,0.609-0.718,0.226-1.439c0,0-1.62-2.784-3.095-4.805c-0.35-0.477-0.92-0.742-1.511-0.701l-1.704,0.123    c-0.565,0.041-1.075,0.361-1.36,0.852c-0.576,0.998-1.11,2.119-1.411,2.776c-0.169,0.372-0.466,0.668-0.837,0.84l-1.716,0.788    c-0.274,0.234-0.381,0.516-0.094,1.142c0.34,0.394,0.675,0.588,1.322,0.291l1.674-0.746c0.353-0.159,0.639-0.426,0.816-0.764    l0.63-1.196l0.312,4.405l-1.486,3.465c-0.249,0.583-0.283,1.233-0.097,1.839l0.901,2.932c0.158,0.513,0.694,0.809,1.212,0.666    c0.089-0.023,0.18-0.051,0.27-0.074c0.255-0.072,0.469-0.242,0.597-0.473c0.13-0.231,0.16-0.507,0.087-0.759l-0.89-3.089    l1.759-3.675l0.911,2.894c0.191,0.604,0.589,1.119,1.125,1.457l2.595,1.635c0.454,0.286,1.053,0.161,1.353-0.284    c0.053-0.076,0.104-0.156,0.155-0.232C21.571,20.521,21.623,20.253,21.57,19.994z M17.644,11.47c0-0.001,0.085,0.12,0.067,0.275    c-0.016,0.145-0.171,0.201-0.171,0.201l-0.381,0.201l-0.11-1.531L17.644,11.47z" fill="#FFFFFF"/>
		<circle cx="14.164" cy="2.517" r="2.517" fill="#FFFFFF"/>
		<circle cx="6.627" cy="22.066" r="3.076" fill="#FFFFFF"/>
	</g>
</g>
<g>
</g>
<g>
</g>
<g>
</g>
<g>
</g>
<g>
</g>
<g>
</g>
<g>
</g>
<g>
</g>
<g>
</g>
<g>
</g>
<g>
</g>
<g>
</g>
<g>
</g>
<g>
</g>
<g>
</g>
</svg>
